# xmcd
#
# Track frame offsets: 
#        150
#        19323
#        32892
#        49951
#        77528
#        91869
#        115710
#
# Disc length: 1872 seconds
#
# Revision: 0
# Processed by: cddbd v1.5.2PL0 Copyright (c) Steve Scherf et al.
# Submitted via: ExactAudioCopy v1.2
#
DISCID=4d074e07
DTITLE=Mudbone - Rivers and Roads, Pt. 1 (Rivers)
DYEAR=2017
DGENRE=Blues
TTITLE0=The River Song
TTITLE1=Red Shoes On
TTITLE2=Misery Loves Company
TTITLE3=Muddy Water Blues
TTITLE4=Shade of the Trees
TTITLE5=Take Your Time
TTITLE6=Down to the River
EXTD=
EXTT0=
EXTT1=
EXTT2=
EXTT3=
EXTT4=
EXTT5=
EXTT6=
PLAYORDER=
